<?xml version="1.0" standalone="no"?>
<!DOCTYPE svg PUBLIC "-//W3C//DTD SVG 20010904//EN"
 "http://www.w3.org/TR/2001/REC-SVG-20010904/DTD/svg10.dtd">
<svg version="1.0" xmlns="http://www.w3.org/2000/svg"
 width="1200.000000pt" height="1200.000000pt" viewBox="0 0 1200.000000 1200.000000"
 preserveAspectRatio="xMidYMid meet">

<g transform="translate(0.000000,1200.000000) scale(0.100000,-0.100000)"
fill="#000000" stroke="none">
<path d="M1656 10669 c-2 -8 -110 -333 -240 -724 l-236 -710 160 -765 c87
-420 158 -765 157 -766 -65 -43 -197 -150 -197 -158 1 -6 64 -58 140 -116 77
-58 140 -108 140 -112 0 -4 -47 -44 -105 -89 -58 -45 -105 -87 -104 -93 0 -10
42 -50 235 -221 l56 -51 -91 -64 c-50 -35 -91 -67 -91 -71 0 -3 95 -118 211
-255 117 -137 213 -251 215 -253 2 -2 9 1 16 6 7 6 456 140 998 298 830 243
986 285 994 273 7 -12 149 103 684 556 371 314 677 576 680 584 2 7 0 31 -7
52 -11 36 -119 119 -1793 1361 -979 727 -1789 1324 -1799 1326 -11 3 -21 -1
-23 -8z"/>
<path d="M10239 10627 c-214 -155 -3468 -2572 -3488 -2592 -15 -15 -25 -37
-27 -66 l-4 -44 677 -572 c421 -355 679 -566 681 -557 2 8 8 14 14 14 18 0
1961 -569 1980 -580 14 -8 52 32 228 237 116 135 214 251 216 257 2 6 -36 40
-86 76 -72 50 -88 66 -78 75 7 7 72 66 143 131 72 65 131 123 133 130 2 6 -34
39 -80 74 -46 35 -95 74 -110 86 l-28 23 145 111 c80 61 145 114 145 118 0 7
-151 127 -191 152 -5 3 64 350 151 770 l160 765 -242 723 c-140 419 -247 722
-254 722 -7 0 -45 -24 -85 -53z"/>
<path d="M3338 5904 c-9 -14 832 -860 867 -873 55 -19 985 -291 998 -291 9 0
18 23 25 63 6 34 49 272 96 528 48 256 86 471 86 477 0 15 -58 18 -965 57
-451 20 -883 38 -961 42 -80 3 -143 2 -146 -3z"/>
<path d="M7550 5864 c-509 -23 -931 -43 -937 -43 -7 -1 -13 -11 -13 -23 -1
-13 41 -256 92 -540 71 -402 95 -518 106 -518 19 0 964 278 1007 296 36 15
867 853 859 866 -8 12 -126 8 -1114 -38z"/>
<path d="M3020 4154 c0 -4 958 -1445 969 -1456 9 -11 49 2 55 17 9 25 168
1395 163 1409 -4 11 -57 15 -259 20 -354 8 -928 14 -928 10z"/>
<path d="M8322 4149 c-338 -4 -518 -11 -524 -17 -8 -8 14 -219 71 -708 46
-383 85 -702 88 -709 5 -15 45 -28 54 -17 13 14 969 1452 969 1457 0 3 -33 4
-72 3 -40 -1 -304 -5 -586 -9z"/>
<path d="M5365 3377 l-89 -62 -47 -425 c-28 -243 -44 -429 -39 -434 9 -9 52
18 84 53 19 21 20 21 724 21 l704 0 50 -41 c35 -30 52 -39 60 -31 7 7 -4 133
-41 434 -29 233 -55 426 -59 429 -4 3 -44 32 -90 63 -66 46 -83 54 -88 42 -5
-14 -63 -16 -535 -16 -453 0 -529 2 -536 15 -7 11 -26 2 -98 -48z"/>
</g>
</svg>
